<?xml version="1.0" encoding="utf-8"?>
<!-- Generator: Adobe Illustrator 24.0.2, SVG Export Plug-In . SVG Version: 6.00 Build 0)  -->
<svg version="1.1" id="Layer_1" xmlns="http://www.w3.org/2000/svg" xmlns:xlink="http://www.w3.org/1999/xlink" x="0px" y="0px"
	 viewBox="0 0 251.85 264.81" style="enable-background:new 0 0 251.85 264.81;" xml:space="preserve">
<style type="text/css">
	.st0{fill:url(#SVGID_1_);}
	.st1{fill:url(#SVGID_2_);}
	.st2{fill:url(#SVGID_3_);}
	.st3{fill:url(#SVGID_4_);}
	.st4{fill:url(#SVGID_5_);}
	.st5{fill:url(#SVGID_6_);}
	.st6{fill:url(#SVGID_7_);}
</style>
<linearGradient id="SVGID_1_" gradientUnits="userSpaceOnUse" x1="72.0885" y1="-802.1956" x2="233.3062" y2="-640.9778" gradientTransform="matrix(1 0 0 -1 0 -609.8787)">
	<stop  offset="0" style="stop-color:#1953A3"/>
	<stop  offset="0.52" style="stop-color:#328075"/>
	<stop  offset="1" style="stop-color:#4CAB48"/>
</linearGradient>
<path class="st0" d="M219.45,124.81c9.4-11,15.7-24.3,18.1-38.5c0-0.2-0.3-0.6-0.6-0.8s-0.4-0.2-0.5,0c-12.8,34.7-33.7,52-63.1,64
	c-1.2-4.8-2.3-9.7-3.1-14.6c11.3-3.1,22.3-7.6,31.2-14.1c9.7-7.1,17.8-16.2,23.7-26.7c5.5-9.6,9.5-20.1,11.9-30.9
	c0.6-2.6,0.3-3.5-0.6-4.2l-0.4-0.3c-0.4-0.3-0.6,0-0.7,0.5c-0.6,2.6-1.4,5.2-2.4,7.8c-11.7,31.3-30.3,50.2-64,58
	c-0.5-5.5-0.7-11.1-0.4-16.6c23.7-5,43.7-21.5,54.6-42.9c5-10,8.7-20.6,11.1-31.5c0.3-1-0.1-2.2-1-2.8c-0.2-0.2-0.5-0.3-0.8-0.3
	c-0.6-0.3-1.2-0.4-1.8-0.2c-10.9,2.4-21.5,6.1-31.5,11.1c-21.4,10.8-37.7,30.8-42.9,54.3c-5.5,0.2-11.1,0.1-16.6-0.4
	c7.8-33.5,26.6-52,57.9-63.6c2.5-1,5.1-1.8,7.8-2.4c0.4-0.1,0.8-0.4,0.5-0.7l-0.3-0.4c-0.7-0.9-1.6-1.1-4.2-0.6
	c-10.8,2.4-21.2,6.4-30.9,11.9c-10.5,5.9-19.6,14-26.7,23.7c-6.4,8.8-10.9,19.7-14,30.8c-4.9-0.8-9.8-1.9-14.6-3.1
	c12-29.2,29.3-50,63.9-62.7c0.2-0.1,0.2-0.3,0-0.5c-0.2-0.2-0.6-0.6-0.8-0.6c-14.2,2.5-27.6,8.7-38.5,18.1
	c-13.5,11.4-24.6,25.8-33.2,43.3c-4.3-1.3-8.6-2.7-12.8-4.1c-12.8-4.5-45.8-19.6-58.6-30.6c-4-3.4-5.9-3.9-8.1-2.4
	c-1.1,1-2.2,2-3.1,3.2c-5,7.1-8.9,15.1-11.4,23.5c-0.2,0.7,1,1.4,2.2,0.9c5.9-2.7,31.6,8.5,39.1,11.5c4.8,1.9,9.7,3.6,14.6,5.2
	c10.2,3.4,20.5,6.5,31,9c-0.6,1.6-1.2,3.3-1.8,5c-1.8,5.2-3.2,10.4-4.5,15.6c-24.7-3.7-45.6-10-59.3-15.7
	c-9.4-3.9-15.4-4.9-19.5-2.7c-0.7,0.4-1.4,1.6-1.1,3.4c1.1,6,3,11.8,5.7,17.3c2.3,4.6,3.6,3.1,5.8,2.6c3.1-0.7,6.8,0.2,9.7,0.8
	c5.8,1.1,11.6,2.6,17.3,3.8c12.7,2.7,25.6,4.4,38.6,5.2c-1.1,7-1.8,13.8-2.2,20.3c-1.7-0.1-3.3-0.1-4.9-0.2
	c-18.9-1.1-40.3-6.3-47.2-8.2c-0.7-0.2-0.7,1.8-0.2,2.3c3.1,3.5,9.1,9.7,10.5,11.2c3.3,3.9,7.7,6.7,12.5,8.2
	c6.2,2,12.7,2.4,19.1,2.6c3,0.1,6.3,0.2,9.7,0.1c0,3.5,0,6.9,0.2,10c0.2,6.4,0.6,13,2.6,19.1c1.5,4.8,4.4,9.2,8.2,12.5
	c1.5,1.4,7.8,7.4,11.2,10.4c0.5,0.5,2.5,0.5,2.3-0.2c-1.8-7-7.1-28.3-8.2-47.2c-0.1-1.7-0.2-3.5-0.3-5.2c6.5-0.4,13.3-1.1,20.3-2.2
	c0.8,13.1,2.5,26.1,5.2,38.9c1.2,5.8,2.7,11.5,3.8,17.4c0.6,3,1.6,6.6,0.8,9.7c-0.5,2.2-2,3.5,2.6,5.8c5.5,2.7,11.3,4.6,17.3,5.7
	c1.9,0.3,3.1-0.4,3.4-1.1c2.2-4.2,1.2-10.1-2.7-19.7c-5.7-13.7-12.1-34.7-15.8-59.5c5.4-1.3,10.7-2.8,16-4.6
	c1.6-0.5,3.1-1.1,4.6-1.7c2.5,10.5,5.6,20.9,9,31.2c1.6,4.9,3.4,9.8,5.3,14.6c2.9,7.4,14.1,33.1,11.5,39.1c-0.5,1.2,0.1,2.4,0.9,2.2
	c8.4-2.5,16.3-6.3,23.4-11.4c1.2-0.9,2.3-1.9,3.2-3.1c1.5-2.1,1-4.1-2.4-8.1c-10.9-12.8-26.1-45.7-30.5-58.6
	c-1.5-4.3-2.9-8.6-4.1-13C193.55,149.61,207.95,138.51,219.45,124.81z M195.65,50.91c9-7,19.5-12,30.2-15.5l5.3-1.7
	c-0.5,1.7-1,3.3-1.6,5c-3.6,10.8-8.5,21.3-15.5,30.2c-11.3,14.5-26.9,22.3-43.8,25.4C173.45,77.61,181.25,62.21,195.65,50.91z
	 M154.35,110.31c-0.4,5-0.4,10-0.3,15.1c0,0.7,0,1.3,0.1,2c-5.9,0.6-12,1-18.1,1.2c0.2-6.1,0.6-12.2,1.2-18.1l2.3,0.1
	C144.55,110.71,149.45,110.61,154.35,110.31z M109.75,107.31c5.5,1,11,1.9,16.6,2.5c-1.1,6.6-1.9,13-2.3,18.8
	c-5.3-0.2-10.6-0.5-15.8-1c-0.9-0.1-1.7-0.2-2.6-0.3C106.55,120.61,107.95,113.91,109.75,107.31z M103.35,161.31
	c0-6.5,0.2-13.3,0.8-20.1c6.4,0.2,12.9,0.1,19.3,0c-0.1,6.4-0.2,12.9,0,19.3C116.65,161.01,109.85,161.31,103.35,161.31z
	 M137.25,159.11c-0.1-0.8-0.2-1.5-0.2-2.3c-0.5-5.3-0.8-10.7-1-16.1c5.9-0.4,12.2-1.2,18.8-2.3c0.6,5.6,1.4,11.1,2.4,16.6
	C150.65,156.81,144.05,158.11,137.25,159.11L137.25,159.11z"/>
<linearGradient id="SVGID_2_" gradientUnits="userSpaceOnUse" x1="72.0885" y1="-802.1956" x2="233.3062" y2="-640.9778" gradientTransform="matrix(1 0 0 -1 0 -609.8787)">
	<stop  offset="0" style="stop-color:#1953A3"/>
	<stop  offset="0.52" style="stop-color:#328075"/>
	<stop  offset="1" style="stop-color:#4CAB48"/>
</linearGradient>
<path class="st1" d="M219.45,124.81c9.4-11,15.7-24.3,18.1-38.5c0-0.2-0.3-0.6-0.6-0.8s-0.4-0.2-0.5,0c-12.8,34.7-33.7,52-63.1,64
	c-1.2-4.8-2.3-9.7-3.1-14.6c11.3-3.1,22.3-7.6,31.2-14.1c9.7-7.1,17.8-16.2,23.7-26.7c5.5-9.6,9.5-20.1,11.9-30.9
	c0.6-2.6,0.3-3.5-0.6-4.2l-0.4-0.3c-0.4-0.3-0.6,0-0.7,0.5c-0.6,2.6-1.4,5.2-2.4,7.8c-11.7,31.3-30.3,50.2-64,58
	c-0.5-5.5-0.7-11.1-0.4-16.6c23.7-5,43.7-21.5,54.6-42.9c5-10,8.7-20.6,11.1-31.5c0.3-1-0.1-2.2-1-2.8c-0.2-0.2-0.5-0.3-0.8-0.3
	c-0.6-0.3-1.2-0.4-1.8-0.2c-10.9,2.4-21.5,6.1-31.5,11.1c-21.4,10.8-37.7,30.8-42.9,54.3c-5.5,0.2-11.1,0.1-16.6-0.4
	c7.8-33.5,26.6-52,57.9-63.6c2.5-1,5.1-1.8,7.8-2.4c0.4-0.1,0.8-0.4,0.5-0.7l-0.3-0.4c-0.7-0.9-1.6-1.1-4.2-0.6
	c-10.8,2.4-21.2,6.4-30.9,11.9c-10.5,5.9-19.6,14-26.7,23.7c-6.4,8.8-10.9,19.7-14,30.8c-4.9-0.8-9.8-1.9-14.6-3.1
	c12-29.2,29.3-50,63.9-62.7c0.2-0.1,0.2-0.3,0-0.5c-0.2-0.2-0.6-0.6-0.8-0.6c-14.2,2.5-27.6,8.7-38.5,18.1
	c-13.5,11.4-24.6,25.8-33.2,43.3c-4.3-1.3-8.6-2.7-12.8-4.1c-12.8-4.5-45.8-19.6-58.6-30.6c-4-3.4-5.9-3.9-8.1-2.4
	c-1.1,1-2.2,2-3.1,3.2c-5,7.1-8.9,15.1-11.4,23.5c-0.2,0.7,1,1.4,2.2,0.9c5.9-2.7,31.6,8.5,39.1,11.5c4.8,1.9,9.7,3.6,14.6,5.2
	c10.2,3.4,20.5,6.5,31,9c-0.6,1.6-1.2,3.3-1.8,5c-1.8,5.2-3.2,10.4-4.5,15.6c-24.7-3.7-45.6-10-59.3-15.7
	c-9.4-3.9-15.4-4.9-19.5-2.7c-0.7,0.4-1.4,1.6-1.1,3.4c1.1,6,3,11.8,5.7,17.3c2.3,4.6,3.6,3.1,5.8,2.6c3.1-0.7,6.8,0.2,9.7,0.8
	c5.8,1.1,11.6,2.6,17.3,3.8c12.7,2.7,25.6,4.4,38.6,5.2c-1.1,7-1.8,13.8-2.2,20.3c-1.7-0.1-3.3-0.1-4.9-0.2
	c-18.9-1.1-40.3-6.3-47.2-8.2c-0.7-0.2-0.7,1.8-0.2,2.3c3.1,3.5,9.1,9.7,10.5,11.2c3.3,3.9,7.7,6.7,12.5,8.2
	c6.2,2,12.7,2.4,19.1,2.6c3,0.1,6.3,0.2,9.7,0.1c0,3.5,0,6.9,0.2,10c0.2,6.4,0.6,13,2.6,19.1c1.5,4.8,4.4,9.2,8.2,12.5
	c1.5,1.4,7.8,7.4,11.2,10.4c0.5,0.5,2.5,0.5,2.3-0.2c-1.8-7-7.1-28.3-8.2-47.2c-0.1-1.7-0.2-3.5-0.3-5.2c6.5-0.4,13.3-1.1,20.3-2.2
	c0.8,13.1,2.5,26.1,5.2,38.9c1.2,5.8,2.7,11.5,3.8,17.4c0.6,3,1.6,6.6,0.8,9.7c-0.5,2.2-2,3.5,2.6,5.8c5.5,2.7,11.3,4.6,17.3,5.7
	c1.9,0.3,3.1-0.4,3.4-1.1c2.2-4.2,1.2-10.1-2.7-19.7c-5.7-13.7-12.1-34.7-15.8-59.5c5.4-1.3,10.7-2.8,16-4.6
	c1.6-0.5,3.1-1.1,4.6-1.7c2.5,10.5,5.6,20.9,9,31.2c1.6,4.9,3.4,9.8,5.3,14.6c2.9,7.4,14.1,33.1,11.5,39.1c-0.5,1.2,0.1,2.4,0.9,2.2
	c8.4-2.5,16.3-6.3,23.4-11.4c1.2-0.9,2.3-1.9,3.2-3.1c1.5-2.1,1-4.1-2.4-8.1c-10.9-12.8-26.1-45.7-30.5-58.6
	c-1.5-4.3-2.9-8.6-4.1-13C193.55,149.61,207.95,138.51,219.45,124.81z M195.65,50.91c9-7,19.5-12,30.2-15.5l5.3-1.7
	c-0.5,1.7-1,3.3-1.6,5c-3.6,10.8-8.5,21.3-15.5,30.2c-11.3,14.5-26.9,22.3-43.8,25.4C173.45,77.61,181.25,62.21,195.65,50.91z
	 M154.35,110.31c-0.4,5-0.4,10-0.3,15.1c0,0.7,0,1.3,0.1,2c-5.9,0.6-12,1-18.1,1.2c0.2-6.1,0.6-12.2,1.2-18.1l2.3,0.1
	C144.55,110.71,149.45,110.61,154.35,110.31z M109.75,107.31c5.5,1,11,1.9,16.6,2.5c-1.1,6.6-1.9,13-2.3,18.8
	c-5.3-0.2-10.6-0.5-15.8-1c-0.9-0.1-1.7-0.2-2.6-0.3C106.55,120.61,107.95,113.91,109.75,107.31z M103.35,161.31
	c0-6.5,0.2-13.3,0.8-20.1c6.4,0.2,12.9,0.1,19.3,0c-0.1,6.4-0.2,12.9,0,19.3C116.65,161.01,109.85,161.31,103.35,161.31z
	 M137.25,159.11c-0.1-0.8-0.2-1.5-0.2-2.3c-0.5-5.3-0.8-10.7-1-16.1c5.9-0.4,12.2-1.2,18.8-2.3c0.6,5.6,1.4,11.1,2.4,16.6
	C150.65,156.81,144.05,158.11,137.25,159.11L137.25,159.11z"/>
<linearGradient id="SVGID_3_" gradientUnits="userSpaceOnUse" x1="72.0885" y1="-802.1956" x2="233.3062" y2="-640.9778" gradientTransform="matrix(1 0 0 -1 0 -609.8787)">
	<stop  offset="0" style="stop-color:#1953A3"/>
	<stop  offset="0.52" style="stop-color:#328075"/>
	<stop  offset="1" style="stop-color:#4CAB48"/>
</linearGradient>
<path class="st2" d="M219.45,124.81c9.4-11,15.7-24.3,18.1-38.5c0-0.2-0.3-0.6-0.6-0.8s-0.4-0.2-0.5,0c-12.8,34.7-33.7,52-63.1,64
	c-1.2-4.8-2.3-9.7-3.1-14.6c11.3-3.1,22.3-7.6,31.2-14.1c9.7-7.1,17.8-16.2,23.7-26.7c5.5-9.6,9.5-20.1,11.9-30.9
	c0.6-2.6,0.3-3.5-0.6-4.2l-0.4-0.3c-0.4-0.3-0.6,0-0.7,0.5c-0.6,2.6-1.4,5.2-2.4,7.8c-11.7,31.3-30.3,50.2-64,58
	c-0.5-5.5-0.7-11.1-0.4-16.6c23.7-5,43.7-21.5,54.6-42.9c5-10,8.7-20.6,11.1-31.5c0.3-1-0.1-2.2-1-2.8c-0.2-0.2-0.5-0.3-0.8-0.3
	c-0.6-0.3-1.2-0.4-1.8-0.2c-10.9,2.4-21.5,6.1-31.5,11.1c-21.4,10.8-37.7,30.8-42.9,54.3c-5.5,0.2-11.1,0.1-16.6-0.4
	c7.8-33.5,26.6-52,57.9-63.6c2.5-1,5.1-1.8,7.8-2.4c0.4-0.1,0.8-0.4,0.5-0.7l-0.3-0.4c-0.7-0.9-1.6-1.1-4.2-0.6
	c-10.8,2.4-21.2,6.4-30.9,11.9c-10.5,5.9-19.6,14-26.7,23.7c-6.4,8.8-10.9,19.7-14,30.8c-4.9-0.8-9.8-1.9-14.6-3.1
	c12-29.2,29.3-50,63.9-62.7c0.2-0.1,0.2-0.3,0-0.5c-0.2-0.2-0.6-0.6-0.8-0.6c-14.2,2.5-27.6,8.7-38.5,18.1
	c-13.5,11.4-24.6,25.8-33.2,43.3c-4.3-1.3-8.6-2.7-12.8-4.1c-12.8-4.5-45.8-19.6-58.6-30.6c-4-3.4-5.9-3.9-8.1-2.4
	c-1.1,1-2.2,2-3.1,3.2c-5,7.1-8.9,15.1-11.4,23.5c-0.2,0.7,1,1.4,2.2,0.9c5.9-2.7,31.6,8.5,39.1,11.5c4.8,1.9,9.7,3.6,14.6,5.2
	c10.2,3.4,20.5,6.5,31,9c-0.6,1.6-1.2,3.3-1.8,5c-1.8,5.2-3.2,10.4-4.5,15.6c-24.7-3.7-45.6-10-59.3-15.7
	c-9.4-3.9-15.4-4.9-19.5-2.7c-0.7,0.4-1.4,1.6-1.1,3.4c1.1,6,3,11.8,5.7,17.3c2.3,4.6,3.6,3.1,5.8,2.6c3.1-0.7,6.8,0.2,9.7,0.8
	c5.8,1.1,11.6,2.6,17.3,3.8c12.7,2.7,25.6,4.4,38.6,5.2c-1.1,7-1.8,13.8-2.2,20.3c-1.7-0.1-3.3-0.1-4.9-0.2
	c-18.9-1.1-40.3-6.3-47.2-8.2c-0.7-0.2-0.7,1.8-0.2,2.3c3.1,3.5,9.1,9.7,10.5,11.2c3.3,3.9,7.7,6.7,12.5,8.2
	c6.2,2,12.7,2.4,19.1,2.6c3,0.1,6.3,0.2,9.7,0.1c0,3.5,0,6.9,0.2,10c0.2,6.4,0.6,13,2.6,19.1c1.5,4.8,4.4,9.2,8.2,12.5
	c1.5,1.4,7.8,7.4,11.2,10.4c0.5,0.5,2.5,0.5,2.3-0.2c-1.8-7-7.1-28.3-8.2-47.2c-0.1-1.7-0.2-3.5-0.3-5.2c6.5-0.4,13.3-1.1,20.3-2.2
	c0.8,13.1,2.5,26.1,5.2,38.9c1.2,5.8,2.7,11.5,3.8,17.4c0.6,3,1.6,6.6,0.8,9.7c-0.5,2.2-2,3.5,2.6,5.8c5.5,2.7,11.3,4.6,17.3,5.7
	c1.9,0.3,3.1-0.4,3.4-1.1c2.2-4.2,1.2-10.1-2.7-19.7c-5.7-13.7-12.1-34.7-15.8-59.5c5.4-1.3,10.7-2.8,16-4.6
	c1.6-0.5,3.1-1.1,4.6-1.7c2.5,10.5,5.6,20.9,9,31.2c1.6,4.9,3.4,9.8,5.3,14.6c2.9,7.4,14.1,33.1,11.5,39.1c-0.5,1.2,0.1,2.4,0.9,2.2
	c8.4-2.5,16.3-6.3,23.4-11.4c1.2-0.9,2.3-1.9,3.2-3.1c1.5-2.1,1-4.1-2.4-8.1c-10.9-12.8-26.1-45.7-30.5-58.6
	c-1.5-4.3-2.9-8.6-4.1-13C193.55,149.61,207.95,138.51,219.45,124.81z M195.65,50.91c9-7,19.5-12,30.2-15.5l5.3-1.7
	c-0.5,1.7-1,3.3-1.6,5c-3.6,10.8-8.5,21.3-15.5,30.2c-11.3,14.5-26.9,22.3-43.8,25.4C173.45,77.61,181.25,62.21,195.65,50.91z
	 M154.35,110.31c-0.4,5-0.4,10-0.3,15.1c0,0.7,0,1.3,0.1,2c-5.9,0.6-12,1-18.1,1.2c0.2-6.1,0.6-12.2,1.2-18.1l2.3,0.1
	C144.55,110.71,149.45,110.61,154.35,110.31z M109.75,107.31c5.5,1,11,1.9,16.6,2.5c-1.1,6.6-1.9,13-2.3,18.8
	c-5.3-0.2-10.6-0.5-15.8-1c-0.9-0.1-1.7-0.2-2.6-0.3C106.55,120.61,107.95,113.91,109.75,107.31z M103.35,161.31
	c0-6.5,0.2-13.3,0.8-20.1c6.4,0.2,12.9,0.1,19.3,0c-0.1,6.4-0.2,12.9,0,19.3C116.65,161.01,109.85,161.31,103.35,161.31z
	 M137.25,159.11c-0.1-0.8-0.2-1.5-0.2-2.3c-0.5-5.3-0.8-10.7-1-16.1c5.9-0.4,12.2-1.2,18.8-2.3c0.6,5.6,1.4,11.1,2.4,16.6
	C150.65,156.81,144.05,158.11,137.25,159.11L137.25,159.11z"/>
<linearGradient id="SVGID_4_" gradientUnits="userSpaceOnUse" x1="72.0885" y1="-802.1956" x2="233.3062" y2="-640.9778" gradientTransform="matrix(1 0 0 -1 0 -609.8787)">
	<stop  offset="0" style="stop-color:#1953A3"/>
	<stop  offset="0.52" style="stop-color:#328075"/>
	<stop  offset="1" style="stop-color:#4CAB48"/>
</linearGradient>
<path class="st3" d="M219.45,124.81c9.4-11,15.7-24.3,18.1-38.5c0-0.2-0.3-0.6-0.6-0.8s-0.4-0.2-0.5,0c-12.8,34.7-33.7,52-63.1,64
	c-1.2-4.8-2.3-9.7-3.1-14.6c11.3-3.1,22.3-7.6,31.2-14.1c9.7-7.1,17.8-16.2,23.7-26.7c5.5-9.6,9.5-20.1,11.9-30.9
	c0.6-2.6,0.3-3.5-0.6-4.2l-0.4-0.3c-0.4-0.3-0.6,0-0.7,0.5c-0.6,2.6-1.4,5.2-2.4,7.8c-11.7,31.3-30.3,50.2-64,58
	c-0.5-5.5-0.7-11.1-0.4-16.6c23.7-5,43.7-21.5,54.6-42.9c5-10,8.7-20.6,11.1-31.5c0.3-1-0.1-2.2-1-2.8c-0.2-0.2-0.5-0.3-0.8-0.3
	c-0.6-0.3-1.2-0.4-1.8-0.2c-10.9,2.4-21.5,6.1-31.5,11.1c-21.4,10.8-37.7,30.8-42.9,54.3c-5.5,0.2-11.1,0.1-16.6-0.4
	c7.8-33.5,26.6-52,57.9-63.6c2.5-1,5.1-1.8,7.8-2.4c0.4-0.1,0.8-0.4,0.5-0.7l-0.3-0.4c-0.7-0.9-1.6-1.1-4.2-0.6
	c-10.8,2.4-21.2,6.4-30.9,11.9c-10.5,5.9-19.6,14-26.7,23.7c-6.4,8.8-10.9,19.7-14,30.8c-4.9-0.8-9.8-1.9-14.6-3.1
	c12-29.2,29.3-50,63.9-62.7c0.2-0.1,0.2-0.3,0-0.5c-0.2-0.2-0.6-0.6-0.8-0.6c-14.2,2.5-27.6,8.7-38.5,18.1
	c-13.5,11.4-24.6,25.8-33.2,43.3c-4.3-1.3-8.6-2.7-12.8-4.1c-12.8-4.5-45.8-19.6-58.6-30.6c-4-3.4-5.9-3.9-8.1-2.4
	c-1.1,1-2.2,2-3.1,3.2c-5,7.1-8.9,15.1-11.4,23.5c-0.2,0.7,1,1.4,2.2,0.9c5.9-2.7,31.6,8.5,39.1,11.5c4.8,1.9,9.7,3.6,14.6,5.2
	c10.2,3.4,20.5,6.5,31,9c-0.6,1.6-1.2,3.3-1.8,5c-1.8,5.2-3.2,10.4-4.5,15.6c-24.7-3.7-45.6-10-59.3-15.7
	c-9.4-3.9-15.4-4.9-19.5-2.7c-0.7,0.4-1.4,1.6-1.1,3.4c1.1,6,3,11.8,5.7,17.3c2.3,4.6,3.6,3.1,5.8,2.6c3.1-0.7,6.8,0.2,9.7,0.8
	c5.8,1.1,11.6,2.6,17.3,3.8c12.7,2.7,25.6,4.4,38.6,5.2c-1.1,7-1.8,13.8-2.2,20.3c-1.7-0.1-3.3-0.1-4.9-0.2
	c-18.9-1.1-40.3-6.3-47.2-8.2c-0.7-0.2-0.7,1.8-0.2,2.3c3.1,3.5,9.1,9.7,10.5,11.2c3.3,3.9,7.7,6.7,12.5,8.2
	c6.2,2,12.7,2.4,19.1,2.6c3,0.1,6.3,0.2,9.7,0.1c0,3.5,0,6.9,0.2,10c0.2,6.4,0.6,13,2.6,19.1c1.5,4.8,4.4,9.2,8.2,12.5
	c1.5,1.4,7.8,7.4,11.2,10.4c0.5,0.5,2.5,0.5,2.3-0.2c-1.8-7-7.1-28.3-8.2-47.2c-0.1-1.7-0.2-3.5-0.3-5.2c6.5-0.4,13.3-1.1,20.3-2.2
	c0.8,13.1,2.5,26.1,5.2,38.9c1.2,5.8,2.7,11.5,3.8,17.4c0.6,3,1.6,6.6,0.8,9.7c-0.5,2.2-2,3.5,2.6,5.8c5.5,2.7,11.3,4.6,17.3,5.7
	c1.9,0.3,3.1-0.4,3.4-1.1c2.2-4.2,1.2-10.1-2.7-19.7c-5.7-13.7-12.1-34.7-15.8-59.5c5.4-1.3,10.7-2.8,16-4.6
	c1.6-0.5,3.1-1.1,4.6-1.7c2.5,10.5,5.6,20.9,9,31.2c1.6,4.9,3.4,9.8,5.3,14.6c2.9,7.4,14.1,33.1,11.5,39.1c-0.5,1.2,0.1,2.4,0.9,2.2
	c8.4-2.5,16.3-6.3,23.4-11.4c1.2-0.9,2.3-1.9,3.2-3.1c1.5-2.1,1-4.1-2.4-8.1c-10.9-12.8-26.1-45.7-30.5-58.6
	c-1.5-4.3-2.9-8.6-4.1-13C193.55,149.61,207.95,138.51,219.45,124.81z M195.65,50.91c9-7,19.5-12,30.2-15.5l5.3-1.7
	c-0.5,1.7-1,3.3-1.6,5c-3.6,10.8-8.5,21.3-15.5,30.2c-11.3,14.5-26.9,22.3-43.8,25.4C173.45,77.61,181.25,62.21,195.65,50.91z
	 M154.35,110.31c-0.4,5-0.4,10-0.3,15.1c0,0.7,0,1.3,0.1,2c-5.9,0.6-12,1-18.1,1.2c0.2-6.1,0.6-12.2,1.2-18.1l2.3,0.1
	C144.55,110.71,149.45,110.61,154.35,110.31z M109.75,107.31c5.5,1,11,1.9,16.6,2.5c-1.1,6.6-1.9,13-2.3,18.8
	c-5.3-0.2-10.6-0.5-15.8-1c-0.9-0.1-1.7-0.2-2.6-0.3C106.55,120.61,107.95,113.91,109.75,107.31z M103.35,161.31
	c0-6.5,0.2-13.3,0.8-20.1c6.4,0.2,12.9,0.1,19.3,0c-0.1,6.4-0.2,12.9,0,19.3C116.65,161.01,109.85,161.31,103.35,161.31z
	 M137.25,159.11c-0.1-0.8-0.2-1.5-0.2-2.3c-0.5-5.3-0.8-10.7-1-16.1c5.9-0.4,12.2-1.2,18.8-2.3c0.6,5.6,1.4,11.1,2.4,16.6
	C150.65,156.81,144.05,158.11,137.25,159.11L137.25,159.11z"/>
<linearGradient id="SVGID_5_" gradientUnits="userSpaceOnUse" x1="72.0885" y1="-802.1956" x2="233.3062" y2="-640.9778" gradientTransform="matrix(1 0 0 -1 0 -609.8787)">
	<stop  offset="0" style="stop-color:#1953A3"/>
	<stop  offset="0.52" style="stop-color:#328075"/>
	<stop  offset="1" style="stop-color:#4CAB48"/>
</linearGradient>
<path class="st4" d="M219.45,124.81c9.4-11,15.7-24.3,18.1-38.5c0-0.2-0.3-0.6-0.6-0.8s-0.4-0.2-0.5,0c-12.8,34.7-33.7,52-63.1,64
	c-1.2-4.8-2.3-9.7-3.1-14.6c11.3-3.1,22.3-7.6,31.2-14.1c9.7-7.1,17.8-16.2,23.7-26.7c5.5-9.6,9.5-20.1,11.9-30.9
	c0.6-2.6,0.3-3.5-0.6-4.2l-0.4-0.3c-0.4-0.3-0.6,0-0.7,0.5c-0.6,2.6-1.4,5.2-2.4,7.8c-11.7,31.3-30.3,50.2-64,58
	c-0.5-5.5-0.7-11.1-0.4-16.6c23.7-5,43.7-21.5,54.6-42.9c5-10,8.7-20.6,11.1-31.5c0.3-1-0.1-2.2-1-2.8c-0.2-0.2-0.5-0.3-0.8-0.3
	c-0.6-0.3-1.2-0.4-1.8-0.2c-10.9,2.4-21.5,6.1-31.5,11.1c-21.4,10.8-37.7,30.8-42.9,54.3c-5.5,0.2-11.1,0.1-16.6-0.4
	c7.8-33.5,26.6-52,57.9-63.6c2.5-1,5.1-1.8,7.8-2.4c0.4-0.1,0.8-0.4,0.5-0.7l-0.3-0.4c-0.7-0.9-1.6-1.1-4.2-0.6
	c-10.8,2.4-21.2,6.4-30.9,11.9c-10.5,5.9-19.6,14-26.7,23.7c-6.4,8.8-10.9,19.7-14,30.8c-4.9-0.8-9.8-1.9-14.6-3.1
	c12-29.2,29.3-50,63.9-62.7c0.2-0.1,0.2-0.3,0-0.5c-0.2-0.2-0.6-0.6-0.8-0.6c-14.2,2.5-27.6,8.7-38.5,18.1
	c-13.5,11.4-24.6,25.8-33.2,43.3c-4.3-1.3-8.6-2.7-12.8-4.1c-12.8-4.5-45.8-19.6-58.6-30.6c-4-3.4-5.9-3.9-8.1-2.4
	c-1.1,1-2.2,2-3.1,3.2c-5,7.1-8.9,15.1-11.4,23.5c-0.2,0.7,1,1.4,2.2,0.9c5.9-2.7,31.6,8.5,39.1,11.5c4.8,1.9,9.7,3.6,14.6,5.2
	c10.2,3.4,20.5,6.5,31,9c-0.6,1.6-1.2,3.3-1.8,5c-1.8,5.2-3.2,10.4-4.5,15.6c-24.7-3.7-45.6-10-59.3-15.7
	c-9.4-3.9-15.4-4.9-19.5-2.7c-0.7,0.4-1.4,1.6-1.1,3.4c1.1,6,3,11.8,5.7,17.3c2.3,4.6,3.6,3.1,5.8,2.6c3.1-0.7,6.8,0.2,9.7,0.8
	c5.8,1.1,11.6,2.6,17.3,3.8c12.7,2.7,25.6,4.4,38.6,5.2c-1.1,7-1.8,13.8-2.2,20.3c-1.7-0.1-3.3-0.1-4.9-0.2
	c-18.9-1.1-40.3-6.3-47.2-8.2c-0.7-0.2-0.7,1.8-0.2,2.3c3.1,3.5,9.1,9.7,10.5,11.2c3.3,3.9,7.7,6.7,12.5,8.2
	c6.2,2,12.7,2.4,19.1,2.6c3,0.1,6.3,0.2,9.7,0.1c0,3.5,0,6.9,0.2,10c0.2,6.4,0.6,13,2.6,19.1c1.5,4.8,4.4,9.2,8.2,12.5
	c1.5,1.4,7.8,7.4,11.2,10.4c0.5,0.5,2.5,0.5,2.3-0.2c-1.8-7-7.1-28.3-8.2-47.2c-0.1-1.7-0.2-3.5-0.3-5.2c6.5-0.4,13.3-1.1,20.3-2.2
	c0.8,13.1,2.5,26.1,5.2,38.9c1.2,5.8,2.7,11.5,3.8,17.4c0.6,3,1.6,6.6,0.8,9.7c-0.5,2.2-2,3.5,2.6,5.8c5.5,2.7,11.3,4.6,17.3,5.7
	c1.9,0.3,3.1-0.4,3.4-1.1c2.2-4.2,1.2-10.1-2.7-19.7c-5.7-13.7-12.1-34.7-15.8-59.5c5.4-1.3,10.7-2.8,16-4.6
	c1.6-0.5,3.1-1.1,4.6-1.7c2.5,10.5,5.6,20.9,9,31.2c1.6,4.9,3.4,9.8,5.3,14.6c2.9,7.4,14.1,33.1,11.5,39.1c-0.5,1.2,0.1,2.4,0.9,2.2
	c8.4-2.5,16.3-6.3,23.4-11.4c1.2-0.9,2.3-1.9,3.2-3.1c1.5-2.1,1-4.1-2.4-8.1c-10.9-12.8-26.1-45.7-30.5-58.6
	c-1.5-4.3-2.9-8.6-4.1-13C193.55,149.61,207.95,138.51,219.45,124.81z M195.65,50.91c9-7,19.5-12,30.2-15.5l5.3-1.7
	c-0.5,1.7-1,3.3-1.6,5c-3.6,10.8-8.5,21.3-15.5,30.2c-11.3,14.5-26.9,22.3-43.8,25.4C173.45,77.61,181.25,62.21,195.65,50.91z
	 M154.35,110.31c-0.4,5-0.4,10-0.3,15.1c0,0.7,0,1.3,0.1,2c-5.9,0.6-12,1-18.1,1.2c0.2-6.1,0.6-12.2,1.2-18.1l2.3,0.1
	C144.55,110.71,149.45,110.61,154.35,110.31z M109.75,107.31c5.5,1,11,1.9,16.6,2.5c-1.1,6.6-1.9,13-2.3,18.8
	c-5.3-0.2-10.6-0.5-15.8-1c-0.9-0.1-1.7-0.2-2.6-0.3C106.55,120.61,107.95,113.91,109.75,107.31z M103.35,161.31
	c0-6.5,0.2-13.3,0.8-20.1c6.4,0.2,12.9,0.1,19.3,0c-0.1,6.4-0.2,12.9,0,19.3C116.65,161.01,109.85,161.31,103.35,161.31z
	 M137.25,159.11c-0.1-0.8-0.2-1.5-0.2-2.3c-0.5-5.3-0.8-10.7-1-16.1c5.9-0.4,12.2-1.2,18.8-2.3c0.6,5.6,1.4,11.1,2.4,16.6
	C150.65,156.81,144.05,158.11,137.25,159.11L137.25,159.11z"/>
<linearGradient id="SVGID_6_" gradientUnits="userSpaceOnUse" x1="72.0885" y1="-802.1956" x2="233.3062" y2="-640.9778" gradientTransform="matrix(1 0 0 -1 0 -609.8787)">
	<stop  offset="0" style="stop-color:#1953A3"/>
	<stop  offset="0.52" style="stop-color:#328075"/>
	<stop  offset="1" style="stop-color:#4CAB48"/>
</linearGradient>
<path class="st5" d="M219.45,124.81c9.4-11,15.7-24.3,18.1-38.5c0-0.2-0.3-0.6-0.6-0.8s-0.4-0.2-0.5,0c-12.8,34.7-33.7,52-63.1,64
	c-1.2-4.8-2.3-9.7-3.1-14.6c11.3-3.1,22.3-7.6,31.2-14.1c9.7-7.1,17.8-16.2,23.7-26.7c5.5-9.6,9.5-20.1,11.9-30.9
	c0.6-2.6,0.3-3.5-0.6-4.2l-0.4-0.3c-0.4-0.3-0.6,0-0.7,0.5c-0.6,2.6-1.4,5.2-2.4,7.8c-11.7,31.3-30.3,50.2-64,58
	c-0.5-5.5-0.7-11.1-0.4-16.6c23.7-5,43.7-21.5,54.6-42.9c5-10,8.7-20.6,11.1-31.5c0.3-1-0.1-2.2-1-2.8c-0.2-0.2-0.5-0.3-0.8-0.3
	c-0.6-0.3-1.2-0.4-1.8-0.2c-10.9,2.4-21.5,6.1-31.5,11.1c-21.4,10.8-37.7,30.8-42.9,54.3c-5.5,0.2-11.1,0.1-16.6-0.4
	c7.8-33.5,26.6-52,57.9-63.6c2.5-1,5.1-1.8,7.8-2.4c0.4-0.1,0.8-0.4,0.5-0.7l-0.3-0.4c-0.7-0.9-1.6-1.1-4.2-0.6
	c-10.8,2.4-21.2,6.4-30.9,11.9c-10.5,5.9-19.6,14-26.7,23.7c-6.4,8.8-10.9,19.7-14,30.8c-4.9-0.8-9.8-1.9-14.6-3.1
	c12-29.2,29.3-50,63.9-62.7c0.2-0.1,0.2-0.3,0-0.5c-0.2-0.2-0.6-0.6-0.8-0.6c-14.2,2.5-27.6,8.7-38.5,18.1
	c-13.5,11.4-24.6,25.8-33.2,43.3c-4.3-1.3-8.6-2.7-12.8-4.1c-12.8-4.5-45.8-19.6-58.6-30.6c-4-3.4-5.9-3.9-8.1-2.4
	c-1.1,1-2.2,2-3.1,3.2c-5,7.1-8.9,15.1-11.4,23.5c-0.2,0.7,1,1.4,2.2,0.9c5.9-2.7,31.6,8.5,39.1,11.5c4.8,1.9,9.7,3.6,14.6,5.2
	c10.2,3.4,20.5,6.5,31,9c-0.6,1.6-1.2,3.3-1.8,5c-1.8,5.2-3.2,10.4-4.5,15.6c-24.7-3.7-45.6-10-59.3-15.7
	c-9.4-3.9-15.4-4.9-19.5-2.7c-0.7,0.4-1.4,1.6-1.1,3.4c1.1,6,3,11.8,5.7,17.3c2.3,4.6,3.6,3.1,5.8,2.6c3.1-0.7,6.8,0.2,9.7,0.8
	c5.8,1.1,11.6,2.6,17.3,3.8c12.7,2.7,25.6,4.4,38.6,5.2c-1.1,7-1.8,13.8-2.2,20.3c-1.7-0.1-3.3-0.1-4.9-0.2
	c-18.9-1.1-40.3-6.3-47.2-8.2c-0.7-0.2-0.7,1.8-0.2,2.3c3.1,3.5,9.1,9.7,10.5,11.2c3.3,3.9,7.7,6.7,12.5,8.2
	c6.2,2,12.7,2.4,19.1,2.6c3,0.1,6.3,0.2,9.7,0.1c0,3.5,0,6.9,0.2,10c0.2,6.4,0.6,13,2.6,19.1c1.5,4.8,4.4,9.2,8.2,12.5
	c1.5,1.4,7.8,7.4,11.2,10.4c0.5,0.5,2.5,0.5,2.3-0.2c-1.8-7-7.1-28.3-8.2-47.2c-0.1-1.7-0.2-3.5-0.3-5.2c6.5-0.4,13.3-1.1,20.3-2.2
	c0.8,13.1,2.5,26.1,5.2,38.9c1.2,5.8,2.7,11.5,3.8,17.4c0.6,3,1.6,6.6,0.8,9.7c-0.5,2.2-2,3.5,2.6,5.8c5.5,2.7,11.3,4.6,17.3,5.7
	c1.9,0.3,3.1-0.4,3.4-1.1c2.2-4.2,1.2-10.1-2.7-19.7c-5.7-13.7-12.1-34.7-15.8-59.5c5.4-1.3,10.7-2.8,16-4.6
	c1.6-0.5,3.1-1.1,4.6-1.7c2.5,10.5,5.6,20.9,9,31.2c1.6,4.9,3.4,9.8,5.3,14.6c2.9,7.4,14.1,33.1,11.5,39.1c-0.5,1.2,0.1,2.4,0.9,2.2
	c8.4-2.5,16.3-6.3,23.4-11.4c1.2-0.9,2.3-1.9,3.2-3.1c1.5-2.1,1-4.1-2.4-8.1c-10.9-12.8-26.1-45.7-30.5-58.6
	c-1.5-4.3-2.9-8.6-4.1-13C193.55,149.61,207.95,138.51,219.45,124.81z M195.65,50.91c9-7,19.5-12,30.2-15.5l5.3-1.7
	c-0.5,1.7-1,3.3-1.6,5c-3.6,10.8-8.5,21.3-15.5,30.2c-11.3,14.5-26.9,22.3-43.8,25.4C173.45,77.61,181.25,62.21,195.65,50.91z
	 M154.35,110.31c-0.4,5-0.4,10-0.3,15.1c0,0.7,0,1.3,0.1,2c-5.9,0.6-12,1-18.1,1.2c0.2-6.1,0.6-12.2,1.2-18.1l2.3,0.1
	C144.55,110.71,149.45,110.61,154.35,110.31z M109.75,107.31c5.5,1,11,1.9,16.6,2.5c-1.1,6.6-1.9,13-2.3,18.8
	c-5.3-0.2-10.6-0.5-15.8-1c-0.9-0.1-1.7-0.2-2.6-0.3C106.55,120.61,107.95,113.91,109.75,107.31z M103.35,161.31
	c0-6.5,0.2-13.3,0.8-20.1c6.4,0.2,12.9,0.1,19.3,0c-0.1,6.4-0.2,12.9,0,19.3C116.65,161.01,109.85,161.31,103.35,161.31z
	 M137.25,159.11c-0.1-0.8-0.2-1.5-0.2-2.3c-0.5-5.3-0.8-10.7-1-16.1c5.9-0.4,12.2-1.2,18.8-2.3c0.6,5.6,1.4,11.1,2.4,16.6
	C150.65,156.81,144.05,158.11,137.25,159.11L137.25,159.11z"/>
<linearGradient id="SVGID_7_" gradientUnits="userSpaceOnUse" x1="72.0885" y1="-802.1956" x2="233.3062" y2="-640.9778" gradientTransform="matrix(1 0 0 -1 0 -609.8787)">
	<stop  offset="0" style="stop-color:#1953A3"/>
	<stop  offset="0.52" style="stop-color:#328075"/>
	<stop  offset="1" style="stop-color:#4CAB48"/>
</linearGradient>
<path class="st6" d="M219.45,124.81c9.4-11,15.7-24.3,18.1-38.5c0-0.2-0.3-0.6-0.6-0.8s-0.4-0.2-0.5,0c-12.8,34.7-33.7,52-63.1,64
	c-1.2-4.8-2.3-9.7-3.1-14.6c11.3-3.1,22.3-7.6,31.2-14.1c9.7-7.1,17.8-16.2,23.7-26.7c5.5-9.6,9.5-20.1,11.9-30.9
	c0.6-2.6,0.3-3.5-0.6-4.2l-0.4-0.3c-0.4-0.3-0.6,0-0.7,0.5c-0.6,2.6-1.4,5.2-2.4,7.8c-11.7,31.3-30.3,50.2-64,58
	c-0.5-5.5-0.7-11.1-0.4-16.6c23.7-5,43.7-21.5,54.6-42.9c5-10,8.7-20.6,11.1-31.5c0.3-1-0.1-2.2-1-2.8c-0.2-0.2-0.5-0.3-0.8-0.3
	c-0.6-0.3-1.2-0.4-1.8-0.2c-10.9,2.4-21.5,6.1-31.5,11.1c-21.4,10.8-37.7,30.8-42.9,54.3c-5.5,0.2-11.1,0.1-16.6-0.4
	c7.8-33.5,26.6-52,57.9-63.6c2.5-1,5.1-1.8,7.8-2.4c0.4-0.1,0.8-0.4,0.5-0.7l-0.3-0.4c-0.7-0.9-1.6-1.1-4.2-0.6
	c-10.8,2.4-21.2,6.4-30.9,11.9c-10.5,5.9-19.6,14-26.7,23.7c-6.4,8.8-10.9,19.7-14,30.8c-4.9-0.8-9.8-1.9-14.6-3.1
	c12-29.2,29.3-50,63.9-62.7c0.2-0.1,0.2-0.3,0-0.5c-0.2-0.2-0.6-0.6-0.8-0.6c-14.2,2.5-27.6,8.7-38.5,18.1
	c-13.5,11.4-24.6,25.8-33.2,43.3c-4.3-1.3-8.6-2.7-12.8-4.1c-12.8-4.5-45.8-19.6-58.6-30.6c-4-3.4-5.9-3.9-8.1-2.4
	c-1.1,1-2.2,2-3.1,3.2c-5,7.1-8.9,15.1-11.4,23.5c-0.2,0.7,1,1.4,2.2,0.9c5.9-2.7,31.6,8.5,39.1,11.5c4.8,1.9,9.7,3.6,14.6,5.2
	c10.2,3.4,20.5,6.5,31,9c-0.6,1.6-1.2,3.3-1.8,5c-1.8,5.2-3.2,10.4-4.5,15.6c-24.7-3.7-45.6-10-59.3-15.7
	c-9.4-3.9-15.4-4.9-19.5-2.7c-0.7,0.4-1.4,1.6-1.1,3.4c1.1,6,3,11.8,5.7,17.3c2.3,4.6,3.6,3.1,5.8,2.6c3.1-0.7,6.8,0.2,9.7,0.8
	c5.8,1.1,11.6,2.6,17.3,3.8c12.7,2.7,25.6,4.4,38.6,5.2c-1.1,7-1.8,13.8-2.2,20.3c-1.7-0.1-3.3-0.1-4.9-0.2
	c-18.9-1.1-40.3-6.3-47.2-8.2c-0.7-0.2-0.7,1.8-0.2,2.3c3.1,3.5,9.1,9.7,10.5,11.2c3.3,3.9,7.7,6.7,12.5,8.2
	c6.2,2,12.7,2.4,19.1,2.6c3,0.1,6.3,0.2,9.7,0.1c0,3.5,0,6.9,0.2,10c0.2,6.4,0.6,13,2.6,19.1c1.5,4.8,4.4,9.2,8.2,12.5
	c1.5,1.4,7.8,7.4,11.2,10.4c0.5,0.5,2.5,0.5,2.3-0.2c-1.8-7-7.1-28.3-8.2-47.2c-0.1-1.7-0.2-3.5-0.3-5.2c6.5-0.4,13.3-1.1,20.3-2.2
	c0.8,13.1,2.5,26.1,5.2,38.9c1.2,5.8,2.7,11.5,3.8,17.4c0.6,3,1.6,6.6,0.8,9.7c-0.5,2.2-2,3.5,2.6,5.8c5.5,2.7,11.3,4.6,17.3,5.7
	c1.9,0.3,3.1-0.4,3.4-1.1c2.2-4.2,1.2-10.1-2.7-19.7c-5.7-13.7-12.1-34.7-15.8-59.5c5.4-1.3,10.7-2.8,16-4.6
	c1.6-0.5,3.1-1.1,4.6-1.7c2.5,10.5,5.6,20.9,9,31.2c1.6,4.9,3.4,9.8,5.3,14.6c2.9,7.4,14.1,33.1,11.5,39.1c-0.5,1.2,0.1,2.4,0.9,2.2
	c8.4-2.5,16.3-6.3,23.4-11.4c1.2-0.9,2.3-1.9,3.2-3.1c1.5-2.1,1-4.1-2.4-8.1c-10.9-12.8-26.1-45.7-30.5-58.6
	c-1.5-4.3-2.9-8.6-4.1-13C193.55,149.61,207.95,138.51,219.45,124.81z M195.65,50.91c9-7,19.5-12,30.2-15.5l5.3-1.7
	c-0.5,1.7-1,3.3-1.6,5c-3.6,10.8-8.5,21.3-15.5,30.2c-11.3,14.5-26.9,22.3-43.8,25.4C173.45,77.61,181.25,62.21,195.65,50.91z
	 M154.35,110.31c-0.4,5-0.4,10-0.3,15.1c0,0.7,0,1.3,0.1,2c-5.9,0.6-12,1-18.1,1.2c0.2-6.1,0.6-12.2,1.2-18.1l2.3,0.1
	C144.55,110.71,149.45,110.61,154.35,110.31z M109.75,107.31c5.5,1,11,1.9,16.6,2.5c-1.1,6.6-1.9,13-2.3,18.8
	c-5.3-0.2-10.6-0.5-15.8-1c-0.9-0.1-1.7-0.2-2.6-0.3C106.55,120.61,107.95,113.91,109.75,107.31z M103.35,161.31
	c0-6.5,0.2-13.3,0.8-20.1c6.4,0.2,12.9,0.1,19.3,0c-0.1,6.4-0.2,12.9,0,19.3C116.65,161.01,109.85,161.31,103.35,161.31z
	 M137.25,159.11c-0.1-0.8-0.2-1.5-0.2-2.3c-0.5-5.3-0.8-10.7-1-16.1c5.9-0.4,12.2-1.2,18.8-2.3c0.6,5.6,1.4,11.1,2.4,16.6
	C150.65,156.81,144.05,158.11,137.25,159.11L137.25,159.11z"/>
</svg>
